<?xml version="1.0" encoding="utf-8"?>
<!-- Generator: Adobe Illustrator 16.0.0, SVG Export Plug-In . SVG Version: 6.00 Build 0)  -->
<!DOCTYPE svg PUBLIC "-//W3C//DTD SVG 1.1//EN" "http://www.w3.org/Graphics/SVG/1.1/DTD/svg11.dtd">
<svg version="1.1" id="Layer_1" xmlns="http://www.w3.org/2000/svg" xmlns:xlink="http://www.w3.org/1999/xlink" x="0px" y="0px"
	 width="733.433px" height="182.419px" viewBox="0 0 733.433 182.419" enable-background="new 0 0 733.433 182.419"
	 xml:space="preserve">
<path fill="#28A0DA" d="M733.43,147.12c-7.957-0.003-15.914,0.064-23.869-0.024c-14.604-0.166-28.672-9.931-33.468-23.636
	c-8.687-24.831,9.224-44.684,27.396-47.908c2.487-0.441,4.984-0.68,7.51-0.676c7.479,0.01,14.954,0.004,22.431,0.004
	c0,1.04,0,2.08,0,3.12c-0.438,0.564-0.347,1.27-0.469,1.909c-1.265,6.633-6.346,11.574-12.971,12.532
	c-3.021,0.438-6.065,0.141-9.099,0.197c-1.933,0.035-3.818,0.275-5.655,0.875c-8.559,2.788-14.005,12.117-12.246,20.969
	c1.562,7.867,7.625,13.641,15.511,14.699c3.062,0.41,6.146,0.141,9.222,0.17c7.206,0.069,13.245,4.812,15.018,11.804
	c0.26,1.022,0.246,2.104,0.689,3.086C733.43,145.2,733.43,146.16,733.43,147.12z"/>
<path fill="#28A0DA" d="M221.749,0c1.042,0.222,2.091,0.417,3.125,0.671c7.547,1.855,12.309,7.872,12.322,15.625
	c0.02,11.717,0.039,23.435-0.008,35.152c-0.026,6.366,2.416,11.468,7.473,15.315c2.896,2.203,6.208,3.203,9.819,3.31
	c3.036,0.089,6.091-0.268,9.105,0.178c6.741,0.998,11.61,5.748,12.842,12.45c0.245,1.332,0.3,2.698,0.454,4.047
	c0.063,0.559-0.021,0.877-0.729,0.865c-8.514-0.151-17.041,0.365-25.542-0.268c-14.727-1.096-28.514-13.722-31.05-28.246
	c-0.441-2.529-0.654-5.07-0.654-7.634c0.002-16.676,0.001-33.353,0-50.028c0-0.479-0.024-0.958-0.037-1.437
	C219.829,0,220.789,0,221.749,0z"/>
<path fill="#28A0DA" d="M-0.251,48.72c0.544-1.535,0.562-3.169,0.911-4.745c2.995-13.52,15.437-25.05,29.108-26.952
	c2.303-0.32,4.607-0.476,6.931-0.47c6.638,0.018,13.276,0.024,19.914-0.014c0.924-0.005,1.256,0.188,1.159,1.172
	c-0.208,2.11-0.422,4.206-1.114,6.23c-2.045,5.985-7.568,10.017-13.884,10.143c-3.036,0.061-6.089-0.254-9.106,0.162
	c-9.09,1.253-15.507,8.625-15.549,17.804c-0.028,6.078-0.173,12.162,0.032,18.233c0.341,10.088-7.136,17.595-18.149,17.279
	c0-12.184,0.001-24.368-0.013-36.552c0-0.443,0.25-0.963-0.239-1.331C-0.251,49.36-0.251,49.04-0.251,48.72z"/>
<path fill="#28A0DA" d="M733.43,105.12c-0.509,0.878-0.451,1.896-0.691,2.84c-1.768,6.946-7.743,11.717-14.906,11.792
	c-4.077,0.043-8.155,0.057-12.229-0.01c-4.259-0.07-7.906-3.287-8.409-7.281c-0.595-4.725,1.825-8.734,6.062-10.057
	c1.002-0.313,2.026-0.408,3.073-0.407c9.034,0.008,18.068,0.004,27.104,0.004C733.43,103.04,733.43,104.08,733.43,105.12z"/>
<path fill="#28A0DA" d="M613.971,147.12c-6.359,0-12.72-0.013-19.077,0.016c-0.809,0.004-1.168-0.065-1.164-1.058
	c0.042-11.678,0.104-23.356,0.01-35.034c-0.159-19.959,16.458-33.766,31.146-35.783c19.781-2.716,34.021,8.486,39.826,21.027
	c6.34,13.694,4.35,33.028-13.329,44.827c-5.906,3.942-12.466,5.875-19.536,5.979c-5.956,0.089-11.919,0.021-17.875,0.021
	C613.971,147.115,613.971,147.118,613.971,147.12z M612.639,118.038c0,3.882,0.026,7.123-0.021,10.362
	c-0.012,0.806,0.241,0.979,1.004,0.977c5.84-0.032,11.68-0.02,17.521-0.025c1.484-0.002,2.948-0.211,4.383-0.596
	c8.316-2.227,13.952-10.229,13.385-18.99c-0.564-8.699-7.138-15.796-15.697-16.949c-9.737-1.312-18.73,5.308-20.294,14.963
	C612.334,111.396,612.792,115.047,612.639,118.038z"/>
<path fill="#28A0DA" d="M566.265,147.105c-6.119,0-12.239,0.087-18.356-0.018c-15.234-0.254-29.77-10.988-33.969-25.486
	c-7.006-24.188,10.069-42.043,26.605-45.727c20.793-4.631,36.501,6.888,42.959,20.689c2.028,4.334,2.989,8.938,3.012,13.701
	c0.054,11.959,0.012,23.918,0.049,35.875c0.002,0.916-0.339,0.998-1.104,0.995c-6.397-0.025-12.798-0.016-19.196-0.016
	C566.265,147.115,566.265,147.11,566.265,147.105z M567.581,119.24c-0.002,0-0.005,0-0.008,0c0-2.957,0.056-5.916-0.01-8.872
	c-0.262-11.716-11.621-20.182-22.932-17.119c-8.183,2.217-13.633,9.845-13.328,18.659c0.328,9.554,8.182,17.316,17.722,17.431
	c5.874,0.07,11.75-0.002,17.624,0.043c0.852,0.006,0.954-0.31,0.945-1.028C567.562,125.316,567.581,122.277,567.581,119.24z"/>
<path fill="#F05223" d="M453.856,127.245c0,6.157-0.021,12.315,0.021,18.475c0.007,0.924-0.223,1.188-1.177,1.186
	c-9.877-0.038-19.755-0.12-29.63,0.026c-3.542,0.055-7.072,0.268-10.613-0.027c-16.405-1.367-31.174-15.666-32.671-32.317
	c-1.95-21.696,15.139-37.396,31.796-39.447c17.689-2.179,34.822,8.008,40.438,24.372c1.161,3.389,1.79,6.881,1.811,10.46
	c0.032,5.759,0.009,11.517,0.009,17.274C453.843,127.245,453.849,127.245,453.856,127.245z M424.059,129.359
	c3.682,0,6.722-0.033,9.759,0.021c0.868,0.017,1.059-0.258,1.043-1.077c-0.051-2.679,0.014-5.357-0.026-8.037
	c-0.059-3.834,0.251-7.681-0.172-11.505c-1.312-11.864-13.584-19.259-24.671-14.897c-7.364,2.896-11.814,10.23-11.38,18.755
	c0.412,8.084,7.31,15.524,15.308,16.526C417.507,129.595,421.109,129.22,424.059,129.359z"/>
<path fill="#28A0DA" d="M113.179,87.592c-5.839,0-11.679,0.061-17.517-0.012c-15.34-0.189-29.585-10.956-33.577-25.751
	c-6.656-24.673,12.029-42.501,28.883-44.86c17.469-2.445,33.963,6.924,39.911,22.997c1.33,3.592,2.046,7.311,2.059,11.134
	c0.038,11.838,0.012,23.676,0.051,35.514c0.003,0.905-0.317,1.007-1.093,1.003c-6.239-0.03-12.478-0.017-18.717-0.017
	C113.179,87.598,113.179,87.595,113.179,87.592z M114.496,59.949c-0.004,0-0.008,0-0.013,0c0-2.839,0.047-5.679-0.008-8.517
	c-0.225-11.446-11.239-19.688-22.296-16.784c-6.529,1.715-13.392,8.618-13.035,18.259c0.344,9.271,8.004,17.039,17.272,17.152
	c5.717,0.07,11.437-0.003,17.154,0.043c0.867,0.007,0.946-0.328,0.938-1.036C114.478,66.027,114.496,62.988,114.496,59.949z"/>
<path fill="#F05223" d="M332.31,87.59c-5.878,0-11.757,0.067-17.634-0.013c-15.265-0.208-29.485-10.991-33.469-25.737
	c-6.648-24.607,11.947-42.492,28.87-44.867c17.48-2.454,33.984,6.926,39.918,22.982c1.328,3.593,2.05,7.31,2.063,11.133
	c0.039,11.835,0.012,23.671,0.05,35.507c0.003,0.885-0.287,1.026-1.084,1.022c-6.237-0.032-12.476-0.018-18.713-0.018
	C332.31,87.597,332.31,87.593,332.31,87.59z M333.616,60.001c-0.005,0-0.01,0-0.015,0c0-2.878,0.052-5.758-0.009-8.635
	c-0.243-11.424-11.337-19.689-22.35-16.68c-7.794,2.13-13.08,9.444-12.955,17.925c0.142,9.58,7.877,17.354,17.433,17.451
	c5.636,0.058,11.274,0.001,16.911,0.034c0.766,0.004,1.018-0.177,1.005-0.981C333.587,66.078,333.616,63.039,333.616,60.001z"/>
<path fill="#28A0DA" d="M212,67.789c0,6.24-0.021,12.48,0.022,18.719c0.006,0.901-0.21,1.145-1.118,1.104
	c-7.129-0.315-12.754-3.051-15.905-9.79c-0.963-2.059-1.304-4.266-1.306-6.529c-0.005-6.64,0.056-13.281-0.033-19.919
	c-0.095-7.139-5.174-14.023-11.89-16.344c-11.515-3.979-23.413,4.701-23.492,17.169c-0.039,6.08-0.154,12.164,0.027,18.238
	c0.282,9.471-6.487,17.055-17.471,17.177c-0.789,0.009-0.904-0.266-0.902-0.961c0.02-11.639,0.008-23.279,0.019-34.919
	c0.018-19.277,15.782-32.82,30.808-34.917c17.37-2.425,34.763,8.295,39.811,25.081c1.081,3.592,1.445,7.274,1.434,11.01
	C211.99,57.869,212,62.829,212,67.789z"/>
<path fill="#28A0DA" d="M461.721,127.141c0-5.598,0.013-11.195-0.005-16.791c-0.049-18.534,14.608-31.166,27.144-34.263
	c3.155-0.78,6.354-1.207,9.604-1.206c7.196,0.001,14.396,0.02,21.593-0.023c0.952-0.005,1.232,0.239,1.143,1.185
	c-0.196,2.03-0.393,4.048-1.034,6.003c-2.062,6.268-7.752,10.465-14.341,10.603c-3.234,0.067-6.477-0.213-9.704,0.193
	c-8.599,1.082-15.528,8.78-15.63,17.486c-0.076,6.557-0.166,13.117,0.017,19.671c0.231,8.299-5.642,15.925-15.259,16.898
	c-0.834,0.085-1.676,0.109-2.505,0.229c-0.85,0.119-1.059-0.188-1.054-1.031c0.037-6.315,0.02-12.635,0.02-18.95
	C461.712,127.141,461.716,127.141,461.721,127.141z"/>
<path fill="#F05323" d="M405.491,41.699c-0.188,0.3-0.376,0.605-0.564,0.912c-12.632,20.507-25.264,41.016-37.896,61.523
	c-7.039,11.427-14.088,22.847-21.097,34.293c-0.514,0.839-0.839,0.953-1.693,0.421c-3.186-1.986-6.409-3.914-9.667-5.777
	c-0.921-0.526-0.834-0.889-0.339-1.689c12.657-20.492,25.284-41.003,37.916-61.511c7.039-11.427,14.089-22.848,21.098-34.294
	c0.516-0.838,0.838-0.954,1.693-0.421c3.221,2.005,6.501,3.913,9.754,5.866C404.987,41.195,405.366,41.29,405.491,41.699z"/>
<path fill="#28A0DA" d="M452.582,156.72c-1.357,4.324-3.342,8.198-6.177,11.635c-3.937,4.771-8.614,8.582-14.281,11.101
	c-2.696,1.197-5.521,1.979-8.442,2.499c-3.159,0.561-6.323,0.43-9.49,0.439c-6.279,0.021-12.561-0.01-18.838,0.025
	c-0.818,0.005-1.05-0.172-1.069-1.03c-0.101-4.087,0.976-7.847,3.446-11.047c2.225-2.883,5.233-4.784,8.895-5.455
	c2.922-0.536,5.885-0.046,8.814-0.271c2.521-0.193,5.071-0.192,7.5-1.154c3.149-1.25,5.875-3.031,7.955-5.744
	c0.487-0.638,1.051-1.034,1.989-1.024C439.402,156.746,445.92,156.72,452.582,156.72z"/>
<path fill="#28A0DA" d="M43.793,43.2c4.355,0,8.71,0,13.065,0c0.47,0,0.953-0.123,0.922,0.678c-0.213,5.639-1.82,10.602-6.65,14.051
	c-2.511,1.793-5.309,2.745-8.385,2.78c-3.915,0.045-7.831,0.048-11.746,0.005c-5.015-0.055-8.714-3.835-8.656-8.771
	c0.059-4.946,3.816-8.716,8.745-8.739C35.324,43.184,39.559,43.2,43.793,43.2z"/>
<path fill="#28A0DA" d="M258.651,29.04c3.077,0,6.153-0.003,9.229,0.004c0.401,0.001,0.832-0.161,0.898,0.578
	c0.558,6.168-3.316,12.872-9.063,15.543c-3.857,1.792-7.946,1.834-11.969,1.036c-4.164-0.826-6.777-5.057-6.29-9.483
	c0.457-4.158,4.034-7.547,8.206-7.655c2.995-0.077,5.992-0.015,8.989-0.015C258.651,29.045,258.651,29.043,258.651,29.04z"/>
</svg>
